<svg xmlns="http://www.w3.org/2000/svg" width="500" height="360" viewBox="0 0 500 360" role="img" aria-label="Language Stats by Commits">
<defs>
<filter id="shadow" x="-10%" y="-10%" width="120%" height="120%"><feDropShadow dx="0" dy="8" stdDeviation="10" flood-color="#000" flood-opacity="0.35"/></filter>
<linearGradient id="panel" x1="0" y1="0" x2="1" y2="1"><stop stop-color="#0f1722"/><stop offset="1" stop-color="#05090f"/></linearGradient>
</defs>
<rect x="1" y="1" width="498" height="358" rx="14" fill="url(#panel)" stroke="#202b38"/>
<text x="24" y="38" fill="#f4f7fb" font-family="Segoe UI, Ubuntu, Arial, sans-serif" font-size="23" font-weight="700">Language Stats</text>
<text x="205" y="38" fill="#58a6ff" font-family="Segoe UI, Ubuntu, Arial, sans-serif" font-size="16" font-weight="700">(by Commits)</text>
<rect x="356" y="18" width="120" height="28" rx="14" fill="#132235"/>
<text x="373" y="37" fill="#58a6ff" font-family="Segoe UI, Ubuntu, Arial, sans-serif" font-size="12" font-weight="700">GraphQL API</text>
<text x="24" y="66" fill="#aab4c3" font-family="Segoe UI, Ubuntu, Arial, sans-serif" font-size="13">Based on 100 commits across 0 repositories - Last 12 months</text>
<rect x="24" y="84" width="452" height="178" rx="12" fill="#071018" stroke="#1b2733"/>
<rect x="24" y="278" width="452" height="54" rx="12" fill="#071018" stroke="#1b2733"/>
<path d="M 130.00 78.00 A 82 82 0 1 1 48.00 160.00 L 75.00 160.00 A 55 55 0 1 0 130.00 105.00 Z" fill="#f7812b" filter="url(#shadow)"/>
<path d="M 48.00 160.00 A 82 82 0 0 1 70.22 103.87 L 89.91 122.35 A 55 55 0 0 0 75.00 160.00 Z" fill="#4b9be8" filter="url(#shadow)"/>
<path d="M 70.22 103.87 A 82 82 0 0 1 104.66 82.01 L 113.00 107.69 A 55 55 0 0 0 89.91 122.35 Z" fill="#73c255" filter="url(#shadow)"/>
<path d="M 104.66 82.01 A 82 82 0 0 1 119.72 78.65 L 123.11 105.43 A 55 55 0 0 0 113.00 107.69 Z" fill="#f7c843" filter="url(#shadow)"/>
<path d="M 119.72 78.65 A 82 82 0 0 1 130.00 78.00 L 130.00 105.00 A 55 55 0 0 0 123.11 105.43 Z" fill="#a7b0bd" filter="url(#shadow)"/>
<text x="130" y="156" text-anchor="middle" fill="#f4f7fb" font-family="Segoe UI, Ubuntu, Arial, sans-serif" font-size="17" font-weight="700">Rust</text>
<text x="130" y="190" text-anchor="middle" fill="#f4f7fb" font-family="Segoe UI, Ubuntu, Arial, sans-serif" font-size="28" font-weight="800">75.0%</text>
<circle cx="250" cy="105" r="6" fill="#f7812b"/>
<text x="264" y="110" fill="#f4f7fb" font-family="Segoe UI, Ubuntu, Arial, sans-serif" font-size="14" font-weight="700">Rust</text>
<text x="356" y="110" text-anchor="end" fill="#aab4c3" font-family="Segoe UI, Ubuntu, Arial, sans-serif" font-size="12">75</text>
<rect x="370" y="100" width="82" height="9" rx="4.5" fill="#202933"/>
<rect x="370" y="100" width="61.50" height="9" rx="4.5" fill="#f7812b"/>
<text x="462" y="110" text-anchor="end" fill="#f7812b" font-family="Segoe UI, Ubuntu, Arial, sans-serif" font-size="12" font-weight="700">75.0%</text>
<circle cx="250" cy="142" r="6" fill="#4b9be8"/>
<text x="264" y="147" fill="#f4f7fb" font-family="Segoe UI, Ubuntu, Arial, sans-serif" font-size="14" font-weight="700">Python</text>
<text x="356" y="147" text-anchor="end" fill="#aab4c3" font-family="Segoe UI, Ubuntu, Arial, sans-serif" font-size="12">12</text>
<rect x="370" y="137" width="82" height="9" rx="4.5" fill="#202933"/>
<rect x="370" y="137" width="9.84" height="9" rx="4.5" fill="#4b9be8"/>
<text x="462" y="147" text-anchor="end" fill="#4b9be8" font-family="Segoe UI, Ubuntu, Arial, sans-serif" font-size="12" font-weight="700">12.0%</text>
<circle cx="250" cy="179" r="6" fill="#73c255"/>
<text x="264" y="184" fill="#f4f7fb" font-family="Segoe UI, Ubuntu, Arial, sans-serif" font-size="14" font-weight="700">Go</text>
<text x="356" y="184" text-anchor="end" fill="#aab4c3" font-family="Segoe UI, Ubuntu, Arial, sans-serif" font-size="12">8</text>
<rect x="370" y="174" width="82" height="9" rx="4.5" fill="#202933"/>
<rect x="370" y="174" width="6.56" height="9" rx="4.5" fill="#73c255"/>
<text x="462" y="184" text-anchor="end" fill="#73c255" font-family="Segoe UI, Ubuntu, Arial, sans-serif" font-size="12" font-weight="700">8.0%</text>
<circle cx="250" cy="216" r="6" fill="#f7c843"/>
<text x="264" y="221" fill="#f4f7fb" font-family="Segoe UI, Ubuntu, Arial, sans-serif" font-size="14" font-weight="700">TypeScript</text>
<text x="356" y="221" text-anchor="end" fill="#aab4c3" font-family="Segoe UI, Ubuntu, Arial, sans-serif" font-size="12">3</text>
<rect x="370" y="211" width="82" height="9" rx="4.5" fill="#202933"/>
<rect x="370" y="211" width="2.46" height="9" rx="4.5" fill="#f7c843"/>
<text x="462" y="221" text-anchor="end" fill="#f7c843" font-family="Segoe UI, Ubuntu, Arial, sans-serif" font-size="12" font-weight="700">3.0%</text>
<circle cx="250" cy="253" r="6" fill="#a7b0bd"/>
<text x="264" y="258" fill="#f4f7fb" font-family="Segoe UI, Ubuntu, Arial, sans-serif" font-size="14" font-weight="700">Other</text>
<text x="356" y="258" text-anchor="end" fill="#aab4c3" font-family="Segoe UI, Ubuntu, Arial, sans-serif" font-size="12">2</text>
<rect x="370" y="248" width="82" height="9" rx="4.5" fill="#202933"/>
<rect x="370" y="248" width="2.00" height="9" rx="4.5" fill="#a7b0bd"/>
<text x="462" y="258" text-anchor="end" fill="#a7b0bd" font-family="Segoe UI, Ubuntu, Arial, sans-serif" font-size="12" font-weight="700">2.0%</text>
<text x="54" y="306" text-anchor="middle" fill="#f4f7fb" font-family="Segoe UI, Ubuntu, Arial, sans-serif" font-size="18" font-weight="800">100</text>
<text x="54" y="323" text-anchor="middle" fill="#aab4c3" font-family="Segoe UI, Ubuntu, Arial, sans-serif" font-size="11">Commits</text>
<text x="178" y="306" text-anchor="middle" fill="#f4f7fb" font-family="Segoe UI, Ubuntu, Arial, sans-serif" font-size="18" font-weight="800">0</text>
<text x="178" y="323" text-anchor="middle" fill="#aab4c3" font-family="Segoe UI, Ubuntu, Arial, sans-serif" font-size="11">Repositories</text>
<text x="302" y="306" text-anchor="middle" fill="#f4f7fb" font-family="Segoe UI, Ubuntu, Arial, sans-serif" font-size="18" font-weight="800">365</text>
<text x="302" y="323" text-anchor="middle" fill="#aab4c3" font-family="Segoe UI, Ubuntu, Arial, sans-serif" font-size="11">Days</text>
<text x="426" y="306" text-anchor="middle" fill="#f4f7fb" font-family="Segoe UI, Ubuntu, Arial, sans-serif" font-size="14" font-weight="700">2026-06-30</text>
<text x="426" y="323" text-anchor="middle" fill="#aab4c3" font-family="Segoe UI, Ubuntu, Arial, sans-serif" font-size="11">Updated</text>
<text x="24" y="348" fill="#8f9bad" font-family="Segoe UI, Ubuntu, Arial, sans-serif" font-size="11">Data source: GitHub GraphQL API - commit history weighted by repository languages</text>
</svg>
